<mxfile host="app.diagrams.net" modified="2023-06-13T08:22:57.074Z" agent="Mozilla/5.0 (Macintosh; Intel Mac OS X 10_15_7) AppleWebKit/537.36 (KHTML, like Gecko) Chrome/114.0.0.0 Safari/537.36" version="21.2.3" etag="MlKudq6F5On7jpPLJrGn" type="github">
  <diagram name="Page-1" id="3WXExgf7V-_9D3vW1qhN">
    <mxGraphModel>
      <root>
        <mxCell id="0" />
        <mxCell id="1" parent="0" />
      </root>
    </mxGraphModel>
  </diagram>
</mxfile>
